<svg width="35" height="19" viewBox="0 0 35 19" fill="none" xmlns="http://www.w3.org/2000/svg">
<path d="M9.35922 5.92009C9.37205 5.80951 9.52276 5.80951 9.53558 5.92009L9.6398 6.84642C9.77287 8.04199 10.6611 8.98594 11.7882 9.12857L12.6604 9.23916C12.7646 9.25198 12.7646 9.41225 12.6604 9.42507L11.7882 9.53565C10.6611 9.67828 9.77287 10.6206 9.6398 11.8178L9.53558 12.7441C9.52276 12.8547 9.37205 12.8547 9.35922 12.7441L9.25501 11.8178C9.12193 10.6222 8.23371 9.67828 7.1066 9.53565L6.23441 9.42507C6.1302 9.41225 6.1302 9.25198 6.23441 9.23916L7.1066 9.12857C8.23371 8.98594 9.12193 8.04359 9.25501 6.84642L9.35922 5.92009Z" fill="white"/>
<path d="M25.1941 15.3885C21.6396 15.6305 18.6912 12.8243 18.6912 9.34013C18.6912 5.856 21.4135 3.27416 24.7596 3.27416C28.1057 3.27416 31.0541 6.2198 30.8104 9.77284C30.602 12.7537 28.1922 15.1801 25.1925 15.3869L25.1941 15.3885ZM9.7448 15.3885C6.08609 15.6144 3.0687 12.5983 3.29476 8.94268C3.48555 5.92812 5.93057 3.46647 8.94796 3.27575C12.6243 3.04978 15.6417 6.06595 15.4156 9.73919C15.2248 12.7537 12.7622 15.1978 9.7464 15.3885H9.7448ZM25.263 0.017603C22.212 -0.137853 19.4543 1.16189 17.6506 3.29339C17.338 3.65719 16.7656 3.65719 16.4722 3.29339C14.7214 1.2308 12.1032 -0.0513113 9.19006 0.00157571C4.12687 0.088118 0.0176362 4.26459 0 9.32411C0 10.9364 0.399219 12.4605 1.12711 13.7778C1.40448 14.2811 1.3179 14.9045 0.918684 15.3035L0.718273 15.5039C-0.00962042 16.2315 -0.00962042 17.3934 0.718273 18.121C1.44617 18.8486 2.60855 18.8486 3.33645 18.121L3.58977 17.8694C3.98899 17.4703 4.57739 17.3838 5.08083 17.6434C6.36346 18.3021 7.80321 18.6659 9.32954 18.6659C12.1738 18.6659 14.7214 17.3838 16.4385 15.3741C16.7512 15.0103 17.3235 15.0103 17.6169 15.3741C19.3341 17.3838 21.8817 18.6659 24.7259 18.6659C30.0152 18.6659 34.2623 14.2811 34.0539 8.96191C33.9144 4.17965 30.0489 0.262803 25.263 0.0192023V0.017603Z" fill="url(#paint0_linear_3131_7767)"/>
<path d="M24.8906 12.6831C25.3395 12.6831 25.7853 12.5949 26.2005 12.4218C26.6158 12.2504 26.9941 11.9971 27.3116 11.6798C27.629 11.3625 27.8824 10.9843 28.0539 10.5692C28.2255 10.1541 28.3152 9.70857 28.3152 9.25984C28.3152 8.8111 28.2271 8.36557 28.0539 7.95049C27.8824 7.5354 27.629 7.15718 27.3116 6.83986C26.9941 6.52254 26.6158 6.26932 26.2005 6.09784C25.7853 5.92636 25.3395 5.83661 24.8906 5.83661V12.6815V12.6831Z" fill="white"/>
<defs>
<linearGradient id="paint0_linear_3131_7767" x1="-2.40493" y1="6.00988" x2="36.7127" y2="17.7981" gradientUnits="userSpaceOnUse">
<stop stop-color="#38CCE8"/>
<stop offset="0.52" stop-color="#044CFE"/>
<stop offset="1" stop-color="#8C7AFE"/>
</linearGradient>
</defs>
</svg>
